<svg xmlns="http://www.w3.org/2000/svg" width="35.526" height="35.525" viewBox="0 0 35.526 35.525"><defs><style>.a{fill:#fafafa;}</style></defs><path class="a" d="M30.322,0H5.2A5.21,5.21,0,0,0,0,5.2V30.322a5.21,5.21,0,0,0,5.2,5.2H30.322a5.21,5.21,0,0,0,5.2-5.2V5.2A5.21,5.21,0,0,0,30.322,0ZM17.832,27.06A9.367,9.367,0,1,1,27.2,17.693,9.377,9.377,0,0,1,17.832,27.06ZM28.24,10.408a3.122,3.122,0,1,1,3.122-3.122A3.126,3.126,0,0,1,28.24,10.408Zm0,0" transform="translate(0 0)"/><path class="a" d="M393.041,90a1.041,1.041,0,1,0,1.041,1.041A1.041,1.041,0,0,0,393.041,90Zm0,0" transform="translate(-364.801 -83.755)"/><path class="a" d="M159.286,150a7.285,7.285,0,1,0,7.285,7.285A7.294,7.294,0,0,0,159.286,150Zm0,0" transform="translate(-141.453 -139.592)"/></svg>