<svg xmlns="http://www.w3.org/2000/svg" width="42.534" height="34.811" viewBox="0 0 42.534 34.811"><defs><style>.a{fill:#fff;}</style></defs><path class="a" d="M15.868,34.811a36.5,36.5,0,0,1-5.637-.447A26.455,26.455,0,0,1,2.52,31.558L0,30.18l2.728-.9c2.982-.981,4.8-1.589,7.043-2.542a9.369,9.369,0,0,1-4.816-5.58L4.32,19.233l.521.08a9.465,9.465,0,0,1-1.185-1.462,8.973,8.973,0,0,1-1.522-5.335l.119-1.682,1.007.39a9.414,9.414,0,0,1-.912-2.557,9.73,9.73,0,0,1,1.036-6.55L4.261.507,5.434,1.916A21.59,21.59,0,0,0,19.42,9.791a8.365,8.365,0,0,1,.508-4.444,8.321,8.321,0,0,1,3.383-3.879A10.161,10.161,0,0,1,29.208.02,9.419,9.419,0,0,1,35,2.408,19.437,19.437,0,0,0,37.118,1.7c.465-.175.992-.374,1.651-.6L41.2.262,39.614,4.788c.1-.009.212-.016.325-.021l2.595-.117L41,6.745c-.088.12-.11.154-.141.2-.124.186-.277.418-2.382,3.229a3.965,3.965,0,0,0-.741,2.582A24.42,24.42,0,0,1,36.4,22.579a17.381,17.381,0,0,1-4.666,6.912,20.607,20.607,0,0,1-9.768,4.722,30.07,30.07,0,0,1-6.1.6Zm0,0" transform="translate(0 0)"/></svg>