<svg xmlns="http://www.w3.org/2000/svg" viewBox="0 0 60.65 8.73"><defs><style>.cls-1{fill:#1596bd;}.cls-2{fill:#189bc2;}</style></defs><g id="Layer_2" data-name="Layer 2"><g id="Layer_1-2" data-name="Layer 1"><g id="Eyes"><path class="cls-1" d="M59.79,3.94C55.59-1.75,39.15-.3,36.15,6c-.32.67-.66,2-.34,2.31a2.06,2.06,0,0,0,1.81.07A29.24,29.24,0,0,1,58.11,7.32c.94.1,2.22.59,2.5-.69A3.78,3.78,0,0,0,59.79,3.94Z"/><path class="cls-2" d="M11.71,0C8.57,0,4.74.72,2,2.86.64,3.92-.6,5.35.31,7.11s2.38.33,3.53.06c6.28-1.48,12.47-1.78,18.56.88.82.36,2,1.3,2.54,0a3.28,3.28,0,0,0-.65-2.69C21,1.21,14.85,0,11.71,0Z"/></g></g></g></svg>