<svg xmlns="http://www.w3.org/2000/svg" viewBox="0 0 135.47 220.53"><defs><style>.cls-1{fill:#f9f9f9;}.cls-2{fill:#171717;}.cls-3{fill:#bfbfbf;}.cls-4{fill:#1596bd;}.cls-5{fill:#189bc2;}.cls-6{fill:#020202;}</style></defs><g id="Layer_2" data-name="Layer 2"><g id="Layer_1-2" data-name="Layer 1"><path class="cls-1" d="M27.94,186.61c-.1,1.78-.15,3.55-1.36,5C27.76,191,28.49,189.41,27.94,186.61Z" transform="translate(0 -0.37)"/><path class="cls-1" d="M133.52,102.58c-.05-.24-.12-.48-.18-.72-.2-.75-.41-1.47-.65-2.16l-.25-.72c-.08-.22-.16-.45-.26-.68s-.17-.44-.27-.65a5.83,5.83,0,0,0-.28-.62c-.18-.4-.38-.79-.57-1.14a11.74,11.74,0,0,0-.67-1.09,9.69,9.69,0,0,0-2.11-2.34,6.06,6.06,0,0,0-1.6-.89l-.42-.14a5.08,5.08,0,0,0-1.79-.14c-.44,3.26-3.21,3.85-5.59,4.69-.27.1-.53.19-.78.31a2.08,2.08,0,0,1-2.35-2.45c.88-4.41,6-2.07,8.3-5.07-.27-3.59-1.46-8.31-5.68-10.11l-.44-.18c-.16-.06-.32-.1-.49-.15a7.81,7.81,0,0,0-1.3-.28,23.6,23.6,0,0,0-3.73-.15l-1,0c-2,.1-4.33.31-7,.56l-1.79.86c-1.83.84-4.26,1.07-1.24,3.8,2.74,2.47.82,4-1.85,4.84-10.62,3.57-21.63,2.66-37.5,2.92A87.4,87.4,0,0,1,35.42,88c-1.83-.52-3.69-.72-3.79-3.13-.09-2,1-3,3-3.3.84-.13,1.93-.47,1.53-1.42a3.34,3.34,0,0,0-1.6-1.27c-4.15-.41-7.63-.77-10.45-.91-.26,0-.5,0-.75,0a17.77,17.77,0,0,0-5.59.42A9.18,9.18,0,0,0,12,83.42l-.15.37a12.08,12.08,0,0,0-.73,3.63l0,.5c0,.31,0,.62,0,.91s0,.5,0,.74,0,.82,0,1.72h0a5.44,5.44,0,0,0-.57,0,3.91,3.91,0,0,0-.49,0,3.1,3.1,0,0,0-.74.13c-.1,0-.2,0-.3.07l-.23.09a1.69,1.69,0,0,0-.37.15l-.36.19a3.35,3.35,0,0,0-.36.21,6.48,6.48,0,0,0-1.37,1.14c-.11.12-.23.24-.34.37s-.34.41-.5.63l-.29.4a14.52,14.52,0,0,0-1.09,1.88,5.77,5.77,0,0,0-.27.56c-.22.47-.43,1-.63,1.49L3,99.17c-.09.24-.17.48-.25.73s-.17.5-.24.76a4.38,4.38,0,0,0-.13.43l-.24.88c-.26,1-.49,2-.7,3.08-.1.56-.2,1.11-.29,1.68,0,.32-.1.63-.14,1S.9,108.53.85,109s-.12,1.06-.17,1.6c0,.31-.06.63-.09,1s0,.43,0,.65q-.06.64-.09,1.29c0,.44,0,.88-.07,1.33a103.87,103.87,0,0,0,.34,13.7c0,.5.09,1,.14,1.49.11,1.2.25,2.43.41,3.66.06.5.13,1,.2,1.5.1.7.2,1.39.31,2.09,0,.11,0,.19,0,.3.1.62.21,1.24.31,1.87,0,.08,0,.19.05.27.12.69.25,1.38.38,2.06s.25,1.32.39,2c.19.94.39,1.89.61,2.83.14.61.28,1.21.43,1.81.39,1.66.82,3.32,1.29,5,.2.69.39,1.37.6,2.06s.36,1.21.55,1.81c.1.37.22.73.34,1.1.19.62.4,1.25.61,1.88s.44,1.3.68,1.95c0,.14.09.27.15.43.25.71.51,1.44.78,2.14s.59,1.57.9,2.35.58,1.45.88,2.18a1,1,0,0,0,.09.21c.25.61.51,1.21.77,1.83.09.21.18.42.28.63q.91,2.06,1.89,4.12c.42.87.86,1.75,1.31,2.62s.78,1.54,1.19,2.3.82,1.51,1.25,2.26.86,1.51,1.3,2.26.86,1.44,1.3,2.16c.05.08.1.18.16.27.43.68.86,1.36,1.3,2a4.19,4.19,0,0,0,.26.33l.16.17a1.12,1.12,0,0,0,.23.21l.24.22a2.13,2.13,0,0,1,.34-.54c5.39-6.33,2.52-13.5,1.13-20-4.65-21.65-8-43.38-7.62-65.6,0-3.28-.2-6.66-2-9.58C13.56,94,12,92.89,13,91.61a3.27,3.27,0,0,1,.6-.54c1.57-1.16,3.53-.69,5.13.46,5.17,3.7,6.56,8.92,6,14.94-.13,1.32,0,2.66,0,4-5.33,17.71.11,35.39.5,53.07.16,7.51,3.34,14.86,2.78,22.61,0,.14,0,.28,0,.41v0c.25.59.51,1.16.76,1.75,0,0,0,0,0,0l.14.31c.39.88.8,1.75,1.21,2.61.1.22.21.45.33.66.19.43.4.84.61,1.24.08.18.17.36.26.53.24.47.48.93.73,1.39s.58,1.08.88,1.59l.51.9c.23.4.46.8.7,1.19.07.13.15.25.23.37.31.52.63,1,1,1.54a2.4,2.4,0,0,0,.16.27c.24.38.49.75.74,1.1,0,0,0,0,0,0,.35.52.71,1,1.07,1.53l.13.18c.3.42.6.82.92,1.23l.23.31.74.93.08.1c.23.28.45.55.68.81s.58.69.88,1,.51.57.78.85a.14.14,0,0,0,0,0l.18.2.57.59.14.14.43.43s0,0,0,0l.4.38,0,0c.26.26.52.5.79.75l.1.09c.3.26.6.54.91.8s.48.4.72.59a.75.75,0,0,0,.14.12,3,3,0,0,0,.34.28c.11.09.22.19.34.27l.33.25h0c.31.25.63.48.94.7l.06.05c.31.21.61.43.92.63l.6.39c.31.19.62.38.94.56a3.58,3.58,0,0,0,.49.3c.4.23.81.45,1.22.66s1,.48,1.45.71l.43.19.56.24.5.2h0l1.1.41.47.15c.49.18,1,.32,1.5.47l.28.08,1,.25.78.17.41.08h.07l.69.13.8.13.41,0a5.54,5.54,0,0,0,.57.07h0c.23,0,.45.05.68.06h.09a1.32,1.32,0,0,0,.34,0,3.7,3.7,0,0,0,.47,0l.14,0,.68,0h.87L68,220.4c.71.15,1.31.3,1.88.43l.84-.05,1.65-.17c.32,0,.64-.08,1-.13.75-.12,1.48-.27,2.21-.43a.86.86,0,0,0,.25-.07c.45-.1.9-.22,1.34-.35.25-.06.51-.15.76-.23l1.45-.49.79-.31.72-.3c.25-.12.49-.21.73-.32l.71-.34.7-.36q1.05-.54,2.07-1.17l.67-.43a8.65,8.65,0,0,0,.78-.51l.55-.38.65-.47.64-.49c.21-.16.43-.32.64-.5.4-.32.79-.66,1.18-1,.84-.73,1.67-1.51,2.48-2.35.32-.32.64-.65,1-1a53.81,53.81,0,0,0,4.26-5.19c.15-.21.31-.42.46-.64l.66-.94.38-.58c1.21-1.8,2.35-3.71,3.44-5.69.12-.22.24-.42.35-.65q1.55-2.85,2.94-5.94c.22-.46.43-.94.64-1.44.15-.32.29-.65.43-1,.26-.59.52-1.2.77-1.82l-.09.43c-.05.25-.1.48-.14.69l-.06.3a9.25,9.25,0,0,0-.2,1.83c0,.16,0,.31,0,.44s0,.3,0,.43,0,.25.07.38.07.25.1.36a4,4,0,0,0,.44.88,2.67,2.67,0,0,0,1.11.88l.27.09.27.07a.86.86,0,0,0,.28,0h.29c-1.81-1.64-.65-4.35-.75-6.59-.08-1.75.74-2.89,2.65-2.81,5.46.21,7.83-3.38,9.67-7.71,9.07-21.3,12.67-43.6,12.72-66.56A46.91,46.91,0,0,0,133.52,102.58ZM109.9,167c.2.13.24.54.35.84-.27.15-.52.29-.77.45-.14-.37-.27-.74-.41-1.1C109.35,167.15,109.73,166.92,109.9,167Zm-5.71,18.66c-4.42,2.22-1.56-2.55-3.18-3.32.65-1.77.81-3.43,1.71-4.45,2-2.26,2-6.2,5.76-7a2,2,0,0,1,.77,1.42C108,177,109.51,183,104.19,185.7Z" transform="translate(0 -0.37)"/><path class="cls-1" d="M67.63.38C37.36.38,14,23.22,14,53.48c0,.42,0,.82,0,1.23s0,.71.07,1.07.07.74.13,1.11a18.13,18.13,0,0,0,.35,1.84,7,7,0,0,0,.17.69s0,0,0,0c.07.26.14.52.22.77a18.38,18.38,0,0,0,.86,2.32c.11.25.22.49.34.74.23.49.49,1,.77,1.44a7.92,7.92,0,0,0,.42.69q.23.36.45.69c.31.46.64.91,1,1.34a7.93,7.93,0,0,0,.53.65l.55.63a32.76,32.76,0,0,0,8.5,6.55,5.68,5.68,0,0,1-1.27-2c3-.8,5.27,1.5,8,1.73,22.56,2,45.28,6.53,66.86-5.12,5.89-3.17,10.14-7.67,13.78-13.05.76-1.12,1.18-3.4,3-2.65s.82,2.88.86,4.45a21.37,21.37,0,0,1-.33,4.34A21.68,21.68,0,0,0,121,57.43a2.93,2.93,0,0,0,0-.29c0-.31.09-.65.12-1a.37.37,0,0,0,0-.18,5.73,5.73,0,0,0,.06-.61c0-.24,0-.49,0-.74s0-.76,0-1.16C121.31,23.22,97.9.38,67.63.38ZM100.11,56C89.79,61,78.64,61.29,67.92,61.77c-8.72-.29-17.16-.72-25.21-3-.59-.16-1.16-.32-1.72-.5-.8-.26-1.59-.55-2.38-.83l-.75-.3-1.11-.46c-10.22-4.37-13.52-11-10.81-21.43,0,0,0,0,0,0,.09-.32.18-.66.28-1,3.27-11.25,11-18.45,21.66-22.39q2-.75,4-1.35C64,6.83,76,7.07,87.7,11.8h0q2.08.84,4.15,1.87a35.83,35.83,0,0,1,10,7.19c.3.3.58.61.85.92s.35.39.52.61c.35.4.67.82,1,1.24l.46.63a31,31,0,0,1,5.23,12.45C111.72,46.22,109,51.76,100.11,56Z" transform="translate(0 -0.37)"/><path class="cls-2" d="M100.11,56C89.79,61,78.64,61.29,67.92,61.77c-8.72-.29-17.16-.72-25.21-3-.59-.16-1.16-.32-1.72-.5-.8-.26-1.59-.55-2.38-.83l-.75-.3-1.11-.46c-10.22-4.37-13.52-11-10.81-21.43,0,0,0,0,0,0,.09-.32.18-.66.28-1,3.27-11.25,11-18.45,21.66-22.39q2-.75,4-1.35C64,6.83,76,7.07,87.7,11.8h0q2.08.84,4.15,1.87a35.83,35.83,0,0,1,10,7.19c.3.3.58.61.85.92s.35.39.52.61c.35.4.67.82,1,1.24l.46.63a31,31,0,0,1,5.23,12.45C111.72,46.22,109,51.76,100.11,56Z" transform="translate(0 -0.37)"/><path class="cls-3" d="M28.34,75.28c1.51,1.52,3.72,2.11,5.55,3.21.2.13.42.24.65.36l2.72.26A51.94,51.94,0,0,1,28.34,75.28Z" transform="translate(0 -0.37)"/><path class="cls-3" d="M119.56,58.68a21.37,21.37,0,0,1-.33,4.34c-3.45,7.38-11,12.74-21.23,16.09l6.44-.63-1.79.86c-1.83.84-4.26,1.07-1.24,3.8,2.74,2.47.82,4-1.85,4.84-10.62,3.57-21.63,2.66-37.5,2.92A87.4,87.4,0,0,1,35.42,88c-1.83-.52-3.69-.72-3.79-3.13-.09-2,1-3,3-3.3.84-.13,1.93-.47,1.53-1.42a3.34,3.34,0,0,0-1.6-1.27c.89.07,1.79.17,2.73.25a51.17,51.17,0,0,1-8.92-3.83,5.68,5.68,0,0,1-1.27-2c3-.8,5.27,1.5,8,1.73,22.56,2,45.28,6.53,66.86-5.12,5.89-3.17,10.14-7.67,13.78-13.05.76-1.12,1.18-3.4,3-2.65S119.52,57.11,119.56,58.68Z" transform="translate(0 -0.37)"/><path class="cls-3" d="M27.94,186.61v-.05l0,0A.19.19,0,0,1,27.94,186.61Z" transform="translate(0 -0.37)"/><path class="cls-3" d="M28,186.14c0,.14,0,.28,0,.41l0,0s0,.05,0,.07,0,0,0,0c-.11,1.77-.16,3.52-1.33,5,0,0,0,0,0,0a2.52,2.52,0,0,1-1.08.29,2.37,2.37,0,0,1-.75,0h0l-.38-.08a5.34,5.34,0,0,1-.53-.16l-.31-.15a2.21,2.21,0,0,1-.34-.18,5.79,5.79,0,0,1-.65-.45,2.13,2.13,0,0,1,.34-.54c5.39-6.33,2.52-13.5,1.13-20-4.65-21.65-8-43.38-7.62-65.6,0-3.28-.2-6.66-2-9.58C13.56,94,12,92.89,13,91.61a3.27,3.27,0,0,1,.6-.54c1.57-1.16,3.53-.69,5.13.46,5.17,3.7,6.56,8.92,6,14.94-.13,1.32,0,2.66,0,4-5.33,17.71.11,35.39.5,53.07C25.35,171,28.53,178.39,28,186.14Z" transform="translate(0 -0.37)"/><path class="cls-3" d="M113.91,190a4.59,4.59,0,0,1-3.63,2c-1.81-1.64-.65-4.35-.75-6.59-.08-1.75.74-2.89,2.65-2.81,5.46.21,7.83-3.38,9.67-7.71,9.07-21.31,12.67-43.61,12.72-66.59C137.21,128.11,132.18,161.86,113.91,190Z" transform="translate(0 -0.37)"/><path class="cls-3" d="M108.48,171c-3.72.77-3.74,4.7-5.76,7-.9,1-1.06,2.67-1.71,4.45,1.62.76-1.24,5.54,3.19,3.32,5.31-2.67,3.78-8.7,5-13.32C109.35,172,108.65,170.93,108.48,171Z" transform="translate(0 -0.37)"/><path class="cls-3" d="M124.12,91.32l.26,0h.1v0a12.13,12.13,0,0,0-.27-2.65c0,.07-.11.12-.16.19A23.07,23.07,0,0,1,124.12,91.32Z" transform="translate(0 -0.37)"/><path class="cls-3" d="M115.75,93.84a2.09,2.09,0,0,0,2.36,2.45c2.5-1.05,5.87-1.38,6.37-5h-.1l-.26,0a23.07,23.07,0,0,0-.07-2.55C121.75,91.76,116.63,89.43,115.75,93.84Z" transform="translate(0 -0.37)"/><path class="cls-3" d="M69.84,220.83c-.73,0-1.46.06-2.21,0h0l-.89,0L68,220.4C68.67,220.55,69.27,220.7,69.84,220.83Z" transform="translate(0 -0.37)"/><path class="cls-3" d="M109.07,167.22c.14.37.28.74.41,1.1l.78-.45c-.12-.3-.16-.7-.36-.83S109.35,167.15,109.07,167.22Z" transform="translate(0 -0.37)"/><g id="Eyes"><path class="cls-4" d="M97.21,29.47C93,23.78,76.58,25.23,73.57,31.54c-.32.67-.66,2-.33,2.32a2.1,2.1,0,0,0,1.81.06,29.21,29.21,0,0,1,20.48-1.07c1,.1,2.22.6,2.51-.69A3.86,3.86,0,0,0,97.21,29.47Z" transform="translate(0 -0.37)"/><path class="cls-5" d="M49.14,25.53c-3.14,0-7,.73-9.72,2.86-1.36,1.06-2.59,2.49-1.68,4.26s2.38.32,3.52.05c6.28-1.47,12.48-1.77,18.56.88.82.36,2,1.3,2.54.05a3.25,3.25,0,0,0-.65-2.69C58.44,26.74,52.27,25.53,49.14,25.53Z" transform="translate(0 -0.37)"/></g><path class="cls-6" d="M67.63.38A55.42,55.42,0,0,0,45.7,4.84,51.74,51.74,0,0,0,16.53,37.22c-.48,1.81-.92,3.63-1.35,5.45-.26,1.85-.57,3.7-.78,5.56s-.2,3.74-.23,5.61a25.81,25.81,0,0,0,.21,2.78c.16.91.3,1.85.54,2.73l-.05.22a.21.21,0,0,0,.05-.21.13.13,0,0,0,0-.06l.06.1a15,15,0,0,0,.61,1.82A18.57,18.57,0,0,0,16.27,63a22.67,22.67,0,0,0,2,3.32,26.71,26.71,0,0,0,5.35,5.53,38,38,0,0,0,6.57,4.07c1.16.58,2.35,1.1,3.55,1.58l3.64,1.32h0a82.34,82.34,0,0,0,15,3.22,122.49,122.49,0,0,0,15.31.89A122.27,122.27,0,0,0,83,82a82.16,82.16,0,0,0,15-3.22l.09,0H98l1.73-.6h0l.84-.31.86-.33c.56-.23,1.13-.46,1.68-.7h0c.84-.4,1.75-.78,2.58-1.26s1.71-.9,2.53-1.38,1.63-1,2.4-1.59,1.53-1.16,2.27-1.78h0a.08.08,0,0,0,0,0l.06-.08a27,27,0,0,0,3-3.07,21.22,21.22,0,0,0,2.43-3.5A20.89,20.89,0,0,0,120,60.32a16,16,0,0,0,.55-2.06,16.76,16.76,0,0,0,.36-2.1v0a.11.11,0,0,1,0-.08V56l.06-.59v0h0a55.59,55.59,0,0,0-3.32-21A51.41,51.41,0,0,0,88.63,4.42,56.51,56.51,0,0,0,67.63.38Zm0,0a56.7,56.7,0,0,1,21,3.94A51.64,51.64,0,0,1,118,34.22a55.67,55.67,0,0,1,3.44,21.18h0l-.06.64V56a2.64,2.64,0,0,1,0,.28v0a17.54,17.54,0,0,1-.36,2.15,17.22,17.22,0,0,1-.55,2.11,22.07,22.07,0,0,1-4.17,7.6,27.15,27.15,0,0,1-3,3.14l.06-.08-.08.1h0c-.74.63-1.51,1.24-2.29,1.81s-1.61,1.11-2.43,1.64-1.71.94-2.56,1.41-1.73.86-2.63,1.29h0l-1.72.73-.87.33c-.3.11-.54.22-.89.34h0l-1.74.62-.06,0h0l0,0,.1,0A82.78,82.78,0,0,1,83,82.71a120.17,120.17,0,0,1-15.4,1,121.85,121.85,0,0,1-15.39-1A83.6,83.6,0,0,1,37.18,79.4h0l-3.68-1.35c-1.21-.5-2.4-1-3.57-1.62a38.8,38.8,0,0,1-6.65-4.16,27.05,27.05,0,0,1-5.43-5.67,23.34,23.34,0,0,1-2-3.39,18.3,18.3,0,0,1-.72-1.83,13.66,13.66,0,0,1-.62-1.87l.05.1a.24.24,0,0,1-.06-.1.24.24,0,0,1,.05-.25l-.05.22c-.25-.94-.39-1.86-.55-2.8a26.9,26.9,0,0,1-.19-2.83c0-1.89.17-3.77.25-5.66s.55-3.73.81-5.59c.45-1.83.9-3.66,1.4-5.48A52,52,0,0,1,45.65,4.74,55.7,55.7,0,0,1,67.63.38Z" transform="translate(0 -0.37)"/><path class="cls-6" d="M26,35.18a28.94,28.94,0,0,1,8.93-15.93A39.08,39.08,0,0,1,51.1,10.46,61.88,61.88,0,0,1,69.52,8.32a57.19,57.19,0,0,1,18.28,3.2l-.1,0h.06l0,0a36.86,36.86,0,0,1,15.38,10.31,27.47,27.47,0,0,1,6.87,17.1,20.72,20.72,0,0,1-1.84,9.17A17.11,17.11,0,0,1,102,55a30,30,0,0,1-8.55,3.75,60.41,60.41,0,0,1-9.12,1.85,137.06,137.06,0,0,1-18.55.93A110.28,110.28,0,0,1,47.25,60c-1.53-.29-3-.62-4.54-1s-3-.93-4.42-1.48c-.72-.28-1.42-.63-2.13-1s-1.38-.71-2-1.14a18.86,18.86,0,0,1-3.67-2.86,16,16,0,0,1-4.4-8.08,21.64,21.64,0,0,1-.51-4.61,23.72,23.72,0,0,1,.39-4.61h0Zm0,0v0h0a23,23,0,0,0-.32,4.61,20.72,20.72,0,0,0,.56,4.58,15.72,15.72,0,0,0,4.45,7.93,18.7,18.7,0,0,0,3.66,2.78c.64.42,1.35.73,2,1.1s1.39.64,2.12.91c1.44.53,2.9,1,4.38,1.44s3,.72,4.51,1a110.34,110.34,0,0,0,18.43,1.5,140.6,140.6,0,0,0,18.47-1,60,60,0,0,0,9-1.88,29.59,29.59,0,0,0,8.36-3.7,16.43,16.43,0,0,0,6-6.67,20,20,0,0,0,1.73-8.86,26.7,26.7,0,0,0-6.63-16.68A36.12,36.12,0,0,0,87.61,12.07l.1,0h-.06l-.05,0A56.51,56.51,0,0,0,69.51,8.82a61,61,0,0,0-18.3,2,42.43,42.43,0,0,0-8.58,3.35A35.56,35.56,0,0,0,35,19.43,28.85,28.85,0,0,0,26,35.18Z" transform="translate(0 -0.37)"/><path class="cls-6" d="M67.59,220.88c-.86,0-1.72.06-2.59,0h0l-.48,0h0l-.36,0h0l-.83-.06h0a27.57,27.57,0,0,1-5.28-.95A31,31,0,0,1,53,218a36.92,36.92,0,0,1-4.66-2.68A40.88,40.88,0,0,1,44.16,212l0,0-.52-.49-.48-.45-.47-.47-.5-.49,0,0c-.78-.86-1.59-1.69-2.32-2.6s-1.5-1.77-2.15-2.73-1.36-1.88-2-2.84S34.49,200,33.91,199q-1.75-3-3.25-6.13c-.49-1-.95-2.1-1.41-3.16s-.9-2.13-1.32-3.2c1,2.08,2,4.16,3.06,6.2s2.19,4.05,3.41,6c.61,1,1.24,1.93,1.88,2.88s1.35,1.86,2,2.79,1.42,1.81,2.15,2.68,1.54,1.7,2.32,2.53l0,0,.91.9.92.88,0,0a42.45,42.45,0,0,0,4.13,3.31A24.56,24.56,0,0,0,51,216.18c.76.44,1.52.88,2.32,1.27a29.36,29.36,0,0,0,4.91,2,23,23,0,0,0,2.56.68c.86.19,1.74.36,2.61.47h0l.81.1h0l.32,0h0l.46,0h0C65.87,220.82,66.73,220.82,67.59,220.88Z" transform="translate(0 -0.37)"/><path class="cls-6" d="M11.14,91.29a25.33,25.33,0,0,1-.28-4,11,11,0,0,1,.8-4,8.19,8.19,0,0,1,2.46-3.26,9.17,9.17,0,0,1,3.62-1.72A13.09,13.09,0,0,0,14.5,80.5a9,9,0,0,0-2.15,3.11,13.42,13.42,0,0,0-.92,3.73C11.28,88.64,11.27,90,11.14,91.29Z" transform="translate(0 -0.37)"/><path class="cls-6" d="M67.59,220.88c-.86,0-1.72.06-2.59,0h0l-.48,0h0l-.36,0h0l-.83-.06h0a29.56,29.56,0,0,1-4.61-.76,33.59,33.59,0,0,1-4.45-1.47c-.71-.3-1.43-.62-2.13-1s-1.36-.77-2-1.15a38,38,0,0,1-3.86-2.67l0,0c-.42-.32-.75-.61-1.11-.9L44.16,212l0,0-.51-.48-.49-.46-.47-.47-.5-.49,0,0c-.78-.86-1.59-1.69-2.32-2.6s-1.5-1.77-2.15-2.73-1.36-1.88-2-2.84S34.49,200,33.91,199q-1.75-3-3.25-6.13c-.49-1-.95-2.1-1.41-3.16s-.9-2.13-1.32-3.2c1,2.08,2,4.16,3.06,6.2s2.19,4.05,3.41,6c.61,1,1.24,1.93,1.88,2.88s1.35,1.86,2,2.79,1.41,1.8,2.16,2.68,1.53,1.7,2.31,2.53l0,0,.91.9.92.88,0,0,1,.91c.34.29.71.61,1,.85l0,0a37,37,0,0,0,3.74,2.65l2,1.14c.68.35,1.37.69,2.07,1a33.82,33.82,0,0,0,4.33,1.57c.75.21,1.48.39,2.24.54s1.52.3,2.27.4h0l.81.1h0l.32,0h0l.46,0h0C65.87,220.82,66.73,220.82,67.59,220.88Z" transform="translate(0 -0.37)"/><path class="cls-6" d="M11.14,91.29A30.14,30.14,0,0,1,11,86.83a11.93,11.93,0,0,1,1.13-4.36,8.15,8.15,0,0,1,3-3.38,10,10,0,0,1,4.32-1.46,48.3,48.3,0,0,1,8.93.34q4.41.5,8.81,1.15c-3-.13-5.91-.37-8.86-.57a54.06,54.06,0,0,0-8.8-.18,8.57,8.57,0,0,0-6.94,4.36C11.24,85.28,11.18,88.35,11.14,91.29Z" transform="translate(0 -0.37)"/><path class="cls-6" d="M67.63,220.88a33,33,0,0,0,13.81-3.21,38.78,38.78,0,0,0,11.34-8.44,63,63,0,0,0,8.54-11.39,117.65,117.65,0,0,0,6.56-12.73,90,90,0,0,1-6.06,13,60.81,60.81,0,0,1-8.5,11.62,37.91,37.91,0,0,1-11.64,8.44,12.34,12.34,0,0,1-1.68.69l-1.7.6c-1.14.38-2.34.6-3.5.9s-2.39.3-3.57.45S68.83,220.87,67.63,220.88Z" transform="translate(0 -0.37)"/><path class="cls-6" d="M124.12,89.57a1.22,1.22,0,0,1,.36.89,1.2,1.2,0,0,1-.4.87,1.23,1.23,0,0,1,0-1.76Z" transform="translate(0 -0.37)"/><path class="cls-6" d="M28.11,188a4.43,4.43,0,0,1-.68,2.86,2.65,2.65,0,0,1-1.19.9,2.74,2.74,0,0,1-.74.17h-.79c-.31-.06-.61-.15-.92-.24h0a6.35,6.35,0,0,1-.81-.44,6.76,6.76,0,0,1-.74-.55h0a5.13,5.13,0,0,1-.95-1.18l-.81-1.27-1.58-2.57c-1-1.74-2-3.48-3-5.26s-1.87-3.57-2.71-5.4-1.71-3.65-2.47-5.51h0l-.1-.23h0c-.48-1.18-1-2.35-1.42-3.53-.23-.59-.46-1.18-.67-1.78l-.65-1.8h0a147.7,147.7,0,0,1-4.42-15,131.71,131.71,0,0,1-2.7-15.43A109.11,109.11,0,0,1,0,116.1a62.32,62.32,0,0,1,2.16-15.56v0a25.41,25.41,0,0,1,1-2.78c.19-.45.37-.91.6-1.36l.74-1.29a9.86,9.86,0,0,1,1.82-2.37A6.88,6.88,0,0,1,9,91.15h0l.16,0,.06,0h0l.21,0h-.1a8.4,8.4,0,0,1,1-.14,5.23,5.23,0,0,1,1,0h0a10.45,10.45,0,0,1,3.11.82,4.74,4.74,0,0,1,2.14,2.47,18.73,18.73,0,0,1,1,6.22c.15,4.16-.24,8.31-.36,12.43a116.58,116.58,0,0,0,.71,12.37c.41,4.11.94,8.22,1.51,12.32,2.36,16.39,5.42,32.68,8.66,48.92h0s0,.07,0,.1h0s0,0,0,0h0A11.06,11.06,0,0,1,28.11,188Zm0,0a10.71,10.71,0,0,0-.17-1.4h0s0-.07,0-.09h0c-3.35-16.23-6.53-32.49-9-48.88-.6-4.1-1.16-8.21-1.6-12.33a117,117,0,0,1-.79-12.42c.09-4.16.45-8.28.27-12.4a18.13,18.13,0,0,0-1-6A4,4,0,0,0,14,92.36a9.63,9.63,0,0,0-2.86-.73h0a4.83,4.83,0,0,0-.85,0,7.76,7.76,0,0,0-.82.13h-.1l-.07,0,.06,0-.16.06h0a6.16,6.16,0,0,0-2.28,1.44,9.16,9.16,0,0,0-1.69,2.25l-.72,1.23c-.21.41-.4.85-.58,1.3a24.13,24.13,0,0,0-1,2.69v0h0A61.73,61.73,0,0,0,.63,116.11,108.34,108.34,0,0,0,1.3,131.7a131.81,131.81,0,0,0,2.59,15.39,144.58,144.58,0,0,0,4.3,15h0l.63,1.78c.21.59.43,1.19.66,1.78.44,1.18.92,2.36,1.39,3.53h0l.08.19h0c.75,1.87,1.59,3.69,2.43,5.52s1.74,3.62,2.66,5.41S18,183.88,19,185.62l1.56,2.59.8,1.27a4.85,4.85,0,0,0,.93,1.17h0a4.81,4.81,0,0,0,.73.55,5.21,5.21,0,0,0,.8.44h0a6,6,0,0,0,.9.24h.05l.74,0a3.1,3.1,0,0,0,.73-.17,2.71,2.71,0,0,0,1.18-.88A4.46,4.46,0,0,0,28.11,188Z" transform="translate(0 -0.37)"/><path class="cls-6" d="M113.91,190a5,5,0,0,1-2.55,1.83,3,3,0,0,1-3-.57,3.94,3.94,0,0,1-1-3,17.6,17.6,0,0,1,.48-3.16h0c3.17-16,6.17-32,8.45-48.09.55-4,1.09-8.06,1.47-12.11a102.88,102.88,0,0,0,.65-12.14c0-2-.2-4.06-.26-6.1s-.13-4.08-.08-6.12A19,19,0,0,1,119,94.4a4.9,4.9,0,0,1,2-2.53A7.68,7.68,0,0,1,124,91h0a5.57,5.57,0,0,1,3.5.57,8.19,8.19,0,0,1,2.62,2.3,20.18,20.18,0,0,1,3,6.13,55.31,55.31,0,0,1,2.22,13.32,118.37,118.37,0,0,1-1.9,26.84A142.3,142.3,0,0,1,126.13,166,132.73,132.73,0,0,1,113.91,190Zm0,0a132.51,132.51,0,0,0,12-24,142.66,142.66,0,0,0,7.12-25.89,117.65,117.65,0,0,0,1.7-26.75,54.58,54.58,0,0,0-2.28-13.15,19.37,19.37,0,0,0-2.92-5.9,7.26,7.26,0,0,0-2.4-2.09,4.85,4.85,0,0,0-3-.48h0a7.38,7.38,0,0,0-2.76.81,4.17,4.17,0,0,0-1.71,2.17,18.51,18.51,0,0,0-.92,5.88c-.06,2,0,4,0,6.08s.23,4.05.22,6.1a105.89,105.89,0,0,1-.73,12.22c-.42,4-1,8.08-1.56,12.11-2.39,16.11-5.51,32.1-8.79,48h0a16.92,16.92,0,0,0-.49,3.15,3.89,3.89,0,0,0,1,2.93,3,3,0,0,0,3,.58A5,5,0,0,0,113.91,190Z" transform="translate(0 -0.37)"/><path class="cls-6" d="M124.12,89.57a19.1,19.1,0,0,0-.53-4.15,9.57,9.57,0,0,0-1.7-3.72,9.1,9.1,0,0,0-7.09-3.41,67.15,67.15,0,0,0-8.37.28c-2.8.2-5.6.42-8.42.53,2.79-.42,5.57-.78,8.37-1.1a56.83,56.83,0,0,1,8.47-.45,9.57,9.57,0,0,1,7.51,3.81A12.59,12.59,0,0,1,124.12,89.57Z" transform="translate(0 -0.37)"/></g></g></svg>