<svg xmlns="http://www.w3.org/2000/svg" width="914.2" height="225.9">
  <path d="M220.9 106.4c-4.9 6-10.2 7.7-18.3 8.8h-1.1c-7.4-.8-12.6-2.5-17.6-8.7-8.7-10.8-8.7-24.8-8.7-29.4 0-12.9 3.6-34.9 26.6-37.8h1c17.7 2.3 26.6 15.2 26.6 38.3-.1 9.2-1.1 19.9-8.5 28.8M204.2.7h-3.3c-51.9 2.2-70.4 42.5-70.5 76.4-.1 36.4 21.8 76 70.2 77h3.1c42.7-2.1 70.3-32.2 70.4-76.8 0-34.7-18.2-73-69.9-76.6m200.7 7.7c-1.2-1.3-2.9-2-4.6-2.1l-30.5-1c-1.7 0-3.3.6-4.5 1.8-1.3 1.2-2 2.9-2.1 4.6l-2.7 81c-.5 15.8-1.3 22.3-15.9 23.3-.4 0-1 .1-1.4 0-13.1-1.2-13.9-7.6-13.9-22.6l.3-82c0-3.6-2.9-6.6-6.6-6.6l-30.4-.1c-3.6 0-6.6 2.9-6.6 6.6l-.3 85.3c.3 17 .8 40.3 26.6 52.2 8.9 4.2 19 6 30.9 6h2.6c56.8-1 57.8-39.9 58.3-60.8l2.7-81c-.1-1.6-.7-3.3-1.9-4.6m300.6 94.3c-1-1.6-2.7-2.6-4.6-2.9l-31.4-4.5c-.3 0-.6-.1-.9-.1-3.2 0-6 2.3-6.5 5.5-1.8 10.4-9 16-21.3 16.6-.8 0-1.4.1-2.2.1-.7 0-1.4 0-2.2-.1-7.8-.5-26-5-25.9-36.4.1-24.9 8.7-37.8 26.4-39.4h.2c13.5.9 17.9 8.4 19.1 14.6.6 3.1 3.4 5.2 6.4 5.2h.7l30.5-3.1c1.9-.2 3.6-1.3 4.7-2.8 1.1-1.5 1.5-3.6 1-5.4-1.8-7.4-7.3-29.9-33.9-41.2-8.2-3.3-17.8-5.1-28.7-5.3h-.9c-52.5 1.7-71.2 41.8-71.3 75.6-.1 37.4 20.7 60.7 40.2 70.1 12.6 5.8 23 6.4 30.5 6.8h3.4c11.5 0 28.8-.1 44.7-12 16.3-12 20.9-29.3 22.7-35.8.6-2 .3-3.9-.7-5.5M76 110.4c-3.1 2.5-9.8 2.8-23.3 3.1l-8.5.1.7-20.4c6.3-.1 20.9-.3 20.9-.3 5.9.1 9.5.3 11.9 3.4 1.3 1.8 1.9 3.7 1.9 5.9 0 4.9-3.1 7.8-3.6 8.2m-10.8-68c5.5 0 8.4.9 10 2.9.7.9 1.2 1.9 1.2 3.8.1 3.2-1.9 4.8-3.2 5.5-2.6 1.1-8.7 1.2-12.3 1.2l-14.7.2.4-13.4c6.4-.1 16.4-.2 16.4-.2h2.2M107 71.9c8.3-7.1 12.4-16.5 12.3-28-.2-12.7-6.1-23.9-16-30.7-12.2-8.7-26.9-8.9-35.8-8.9L41 4.6c-.4 0-1.5.1-1.6.1 0 0-29.7-1-29.8-1-2.2 0-4.3.8-5.9 2.3C2 7.6 1 9.7 1 12l.2 130.3c-.2 4.7 3.5 8.7 8.2 8.8l62.8.2h.8c12.8-1 30.3-2.3 42.9-19.9 3.7-5.4 8-14.4 7.8-26.9-.1-13.6-6-24.8-16.7-32.6M828.5 114l-63.9-.2-.5-20.6c.2 0 .3.1.5.1l57.7.2c3.6 0 6.6-2.9 6.6-6.6l.1-24.1c0-3.6-2.9-6.6-6.6-6.6l-57.7-.2c-.5 0-1 .1-1.5.2l-.3-14.1c.6.2 1.2.3 1.9.3l62.6.2c3.7 0 6.6-2.9 6.6-6.6l.1-24.5c0-3.6-2.9-6.6-6.6-6.6l-62.6-.2c-1.9 0-41.2-.3-41.2-.3-2.3.1-4.4 1-6 2.7-1.6 1.6-2.4 3.9-2.4 6.2l3.1 131.4c.1 4.7 3.9 8.4 8.6 8.4.1 0 36.2-1.2 37.4-1.2l63.9.2c3.6 0 6.6-2.9 6.6-6.6l.1-24.8c.1-3.7-2.9-6.7-6.5-6.7M546 .8l-30-.1c-1.8 0-3.5.7-4.7 2-1.2 1.3-1.9 3-1.9 4.7l.7 65.3L495.6 50l-18.4 49.6 20.8 32.2 13.4-36.3 4.9-13.1 20.7 32.3-5.5 14.9-7.4 20.1c8.4-.3 19.2-.6 19.2-.6 2.5-.1 5-1.1 6.8-2.9 1.6-1.9 2.3-3.3 2.3-5.5l.4-133.1c-.2-3.8-3.1-6.8-6.8-6.8m-89.6 66.6l4.2-11.3 14.2-38.4L466.1 4c-1.6-2.5-4.4-4-7.4-4 0 0-4.6.1-10.2.3l-8.1 21.8-4.9 13.1-13.2-20.5-.1-.2c-.8-1.2-1.2-2.5-1.4-3.9 0-.4-.1-.8 0-1.2-.1.8-.2 1.6-.2 2.4v2l-.4 130c0 3.6 2.9 6.6 6.6 6.6l30.2.1c1.8 0 3.5-.7 4.7-2 1.3-1.3 1.9-3 1.9-4.7l-.9-66.7-6.3-9.7zm415.3 85.4c.7-.5 1.1-1.2 1.1-2l1.2-13.2v-.2c0-1.4-1.1-2.6-2.6-2.8-4.6-.5-7.2-3.3-7.8-8.5v-1.2c.2-3.3 2.1-10.9 15.8-10.9 10.8 0 16.5 3.4 17.3 10.8v.3c-.7 5.6-4 7.3-6.8 7.7-1.4.2-2.4 1.3-2.4 2.7v.2l.7 12.7c0 .8.5 1.5 1.1 2 .7.5 1.5.7 2.3.5 3.3-.6 13.2-2.4 18.7-13.3 1.6-3.3 2.6-7.3 2.9-11.8v-.6c0-.2.1-.3.1-.5v-.2c-.9-21.9-18.4-29.6-33.2-29.6-16.3 0-26.4 8.8-30.5 16.9-2.5 5.3-2.7 9.6-2.9 12.7v1.7c.3 4.8.8 12 6.4 18.3 5.6 6.5 13.3 8 16.2 8.5.9.4 1.8.2 2.4-.2M849.9 8.7c0-.7.3-1.5.9-2 .5-.5 1.3-.8 2-.8l58.4.1c1.6 0 2.9 1.3 2.9 2.9v13.3c0 .7-.3 1.4-.9 2-.5.5-1.3.8-2 .8l-58.5-.1c-1.6 0-2.9-1.3-2.9-2.9.1-.1.1-13.3.1-13.3m64.3 42c0-.1-.2-12.8-.2-12.8 0-1.4-.8-2.6-2-3.3-.7-.4-1.5-.5-2.3-.5h-.6L853 32.8c-1.6 0-2.9 1.2-2.9 2.8l-.3 13.2c0 .8.3 1.5.8 2.1.5.6 1.3.9 2.1.9l27.7.2-30.2 18.7c-1.1.7-1.8 1.9-1.8 3.2l.2 12.5c0 1.4.8 2.7 2 3.3.8.4 1.7.5 2.6.5h.7l55.6 1.3c1.6 0 2.9-1.2 2.9-2.8l.3-13.1c0-.8-.3-1.5-.8-2.1-.5-.5-1.3-.9-2.1-.9l-27.5-.2 30-18.4c1.2-.8 1.9-2 1.9-3.3" fill="#231f20"/>
  <path d="M0 225.2v-48.9h35.4v12h-22v7.6h20v11.3h-20v18H0zm41.7 0v-48.9h22.2c4.8 0 9 1.6 12.4 4.9s5.1 7.2 5.1 11.9c0 6.2-3.3 11.6-8.3 14l12.2 18.1H70L60 210h-5v15.2H41.7zM55 199.4h7.4c3.6 0 5.7-2.1 5.7-5.8 0-3.1-2-5.2-4.6-5.2H55v11zm34.3 25.8v-48.9h36.1v12h-22.7v6.7h21.2v11h-21.2v7.4H126v11.8H89.3zm43.4 0v-48.9h36.1v12h-22.7v6.7h21.2v11h-21.2v7.4h23.3v11.8h-36.7zm76.3-16.9c2.6 3.6 7.1 6 12.2 6 4.3 0 6.5-1.2 6.5-3.5 0-1.3-.8-2.2-2.7-3-.9-.3-1.9-.7-2.9-1-1.9-.6-5.4-1.6-7.7-2.5-7.5-2.8-11.3-7.5-11.3-14.1 0-4.6 1.7-8.2 5.1-10.8 3.4-2.6 7.6-3.9 12.4-3.9 8.1 0 14.1 2.6 18.1 7.8l-8.8 7.5c-2.2-2.6-5.1-3.9-8.8-3.9-3.4 0-5.3 1.3-5.3 3 0 1.4.5 2.2 2 2.8.8.4 1.6.6 2.5.8 1.7.4 5.5 1.5 8.6 2.6 8.4 3 11.9 7.4 11.9 14.1 0 9.5-6.5 15.5-19.5 15.5-5.5 0-10-1-13.5-3s-6.2-4.5-8.1-7.4l9.3-7zm36.8 16.9v-48.9h22.9c3.7 0 7.8 1.5 11.2 4.3 3.4 2.7 6 7.5 6 13.1 0 5-1.8 9.1-5.4 12.4-3.6 3.3-7.5 4.9-11.8 4.9h-9.6v14.2h-13.3zm13.4-26.2h9.1c.6 0 1.3-.1 2.5-.7 1.3-.6 2.2-2.2 2.2-4.6 0-2.5-.8-4.1-2.2-4.7s-1.9-.6-2.5-.6h-9V199zm32.6 26.2v-48.9h13.3v48.9h-13.3zm21.6 0v-48.9h22.2c4.8 0 9 1.6 12.4 4.9s5.1 7.2 5.1 11.9c0 6.2-3.3 11.6-8.3 14l12.2 18.1h-15.3l-10-15.2h-5v15.2h-13.3zm13.3-25.8h7.4c3.6 0 5.7-2.1 5.7-5.8 0-3.1-2-5.2-4.6-5.2h-8.6v11zm34.6 25.8v-48.9h13.3v48.9h-13.3zm31.2 0v-36.8h-13.2v-12.1h39.4v12.1h-12.9v36.8h-13.3zm35.4-16.9c2.6 3.6 7.1 6 12.2 6 4.3 0 6.5-1.2 6.5-3.5 0-1.3-.8-2.2-2.7-3-.9-.3-1.9-.7-2.9-1-1.9-.6-5.4-1.6-7.7-2.5-7.5-2.8-11.3-7.5-11.3-14.1 0-4.6 1.7-8.2 5.1-10.8 3.4-2.6 7.6-3.9 12.4-3.9 8.1 0 14.1 2.6 18.1 7.8l-8.8 7.5c-2.2-2.6-5.1-3.9-8.8-3.9-3.4 0-5.3 1.3-5.3 3 0 1.4.5 2.2 2 2.8.8.4 1.6.6 2.5.8 1.7.4 5.5 1.5 8.6 2.6 8.4 3 11.9 7.4 11.9 14.1 0 9.5-6.5 15.5-19.5 15.5-5.5 0-10-1-13.5-3s-6.2-4.5-8.1-7.4l9.3-7zm62.5-31.9h13.3v26.4c0 8.1 3.1 11.1 8.6 11.1s8.6-3 8.6-11.1v-26.4h13.3v27.8c0 7.1-2.1 12.5-6.2 16.2-4.1 3.7-9.4 5.5-15.7 5.5-6.3 0-11.6-1.8-15.7-5.5s-6.2-9.1-6.2-16.2v-27.8zm51.3 48.8v-48.9h11.9l20.5 26.2v-26.2h12.8v48.9H576L554.5 198v27.3h-12.8zm53.2 0v-48.9h13.3v36.8h18.6v12.1h-31.9zm37.3 0v-48.9h36.1v12h-22.7v6.7h21.2v11h-21.2v7.4h23.3v11.8h-36.7zm39.5 0l19.9-48.9h12.2l19.9 48.9h-14.1l-2.5-6.4h-18.8l-2.6 6.4h-14zm20.1-16.6h11.8l-5.9-15.2-5.9 15.2zm40.4-.3c2.6 3.6 7.1 6 12.2 6 4.3 0 6.5-1.2 6.5-3.5 0-1.3-.8-2.2-2.7-3-.9-.3-1.9-.7-2.9-1-1.9-.6-5.4-1.6-7.7-2.5-7.5-2.8-11.3-7.5-11.3-14.1 0-4.6 1.7-8.2 5.1-10.8 3.4-2.6 7.6-3.9 12.4-3.9 8.1 0 14.1 2.6 18.1 7.8l-8.8 7.5c-2.2-2.6-5.1-3.9-8.8-3.9-3.4 0-5.3 1.3-5.3 3 0 1.4.5 2.2 2 2.8.8.4 1.6.6 2.5.8 1.7.4 5.5 1.5 8.6 2.6 8.4 3 11.9 7.4 11.9 14.1 0 9.5-6.5 15.5-19.5 15.5-5.5 0-10-1-13.5-3s-6.2-4.5-8.1-7.4l9.3-7zm36.9 16.9v-48.9h13.3v17h18.4v-17h13.3v48.9h-13.3v-19.7h-18.4v19.7h-13.3zm53 0v-48.9h36.1v12h-22.7v6.7h21.2v11h-21.2v7.4h23.3v11.8h-36.7zm43.4 0v-48.9h19.9c8.5 0 14.9 2.2 19.4 6.8 4.6 4.6 6.8 10.5 6.8 17.7 0 7.4-2.2 13.3-6.7 17.7-4.4 4.4-10.9 6.6-19.4 6.6h-20zm13.3-12h5.8c5.6 0 9.5-1.3 11.2-3.7 1.9-2.5 2.4-4.9 2.4-8.6 0-3.6-.5-6-2.4-8.4-1.9-2.3-5.6-3.6-11.3-3.6h-5.7v24.3z" fill="#ec2d85"/>
</svg>
