<?xml version="1.0" encoding="utf-8"?>
<!-- Generator: Adobe Illustrator 23.0.1, SVG Export Plug-In . SVG Version: 6.00 Build 0)  -->
<svg version="1.1" id="Layer_1" xmlns="http://www.w3.org/2000/svg" xmlns:xlink="http://www.w3.org/1999/xlink" x="0px" y="0px"
	 viewBox="0 0 967.47 261.77" style="enable-background:new 0 0 967.47 261.77;" xml:space="preserve">
<style type="text/css">
	.st0{fill:none;stroke:#7070F0;stroke-width:3;stroke-miterlimit:10;}
	.st1{fill:#7070F0;}
</style>
<g id="Page-1_2_">
	<g id="Logo-Copy_2_">
		<path id="Combined-Shape_2_" d="M13.81,71.83v-0.29c0-27.95,20.65-51.09,49.39-51.09c17.71,0,28.32,6.35,38.08,15.66l-7.53,8.19
			c-8.23-7.91-17.44-13.56-30.69-13.56c-21.62,0-37.8,17.79-37.8,40.51v0.29c0,22.86,16.32,40.79,37.8,40.79
			c13.39,0,22.18-5.22,31.53-14.25l7.25,7.19c-10.18,10.44-21.34,17.36-39.06,17.36C34.6,122.64,13.81,100.2,13.81,71.83z
			 M237.87,120.95V22.14h11.02v98.81H237.87z M277.48,22.14h10.32l61.52,79.18V22.14h10.74v98.8h-8.79l-63.06-81.02v81.02h-10.74
			v-98.8H277.48z M469.19,22.14h23.01l20.23,66.9l21.9-67.2h18.42l21.9,67.2l20.23-66.9h22.46L584,121.66h-18.69l-22.04-64.65
			l-22.04,64.65h-18.69L469.19,22.14z M634.23,120.95V22.14h21.49v98.81H634.23z M702.86,42.18h-29.71V22.14h80.92v20.04h-29.71
			v78.76h-21.49L702.86,42.18L702.86,42.18z M202.15,71.83v-0.29c0-22.44-16.18-40.8-38.51-40.8s-38.22,18.07-38.22,40.51v0.29
			c0,22.45,16.18,40.79,38.5,40.79C186.24,112.34,202.15,94.27,202.15,71.83 M113.98,71.83v-0.29c0-27.24,20.22-51.09,49.94-51.09
			s49.66,23.57,49.66,50.81v0.29c0,27.24-20.23,51.1-49.94,51.1S113.98,99.06,113.98,71.83z M762.02,71.83v-0.29
			c0-28.09,20.93-51.09,50.92-51.09c18.42,0,29.44,6.2,38.5,15.24l-13.67,15.95c-7.53-6.92-15.2-11.15-24.97-11.15
			c-16.46,0-28.32,13.84-28.32,30.77v0.29c0,16.94,11.58,31.05,28.32,31.05c11.16,0,17.99-4.51,25.67-11.58L852.15,105
			c-10.04,10.87-21.2,17.64-40.04,17.64C783.36,122.64,762.02,100.2,762.02,71.83z M869.3,22.14h21.49v39.1h39.61v-39.1h21.49v98.8
			H930.4V81.28h-39.61v39.66H869.3V22.14z M406.95,113.37c-0.06,0.04-0.1,0.09-0.16,0.12c-0.57,0.44-1.18,0.81-1.83,1.13h-0.01
			c-1.33,0.67-2.78,1.09-4.32,1.24l0,0c-0.39,0.04-0.77,0.11-1.17,0.11c-0.08,0-0.17,0-0.25,0c-6.82-0.14-12.24-5.84-12.1-12.75
			c0.14-6.82,5.64-12.24,12.34-12.24c0.09,0,0.17,0,0.26,0c6.57,0.14,11.79,5.45,12.04,12c0.01,0.26,0.06,0.49,0.05,0.74
			c-0.01,0.83-0.11,1.63-0.28,2.4c-0.07,0.33-0.2,0.64-0.29,0.95c-0.13,0.42-0.24,0.86-0.41,1.26c-0.18,0.43-0.41,0.82-0.64,1.22
			c-0.14,0.26-0.27,0.52-0.42,0.77c-0.31,0.47-0.66,0.91-1.03,1.33c-0.11,0.12-0.21,0.26-0.33,0.39
			C407.95,112.54,407.46,112.96,406.95,113.37z M430.37,34.92c-0.11-0.67-0.18-1.37-0.16-2.09c0.01-0.75,0.12-1.47,0.26-2.19
			c0.04-0.19,0.08-0.39,0.13-0.58c0.15-0.61,0.34-1.2,0.57-1.76c0.1-0.24,0.21-0.46,0.32-0.69c0.2-0.41,0.42-0.81,0.66-1.18
			c0.19-0.3,0.38-0.59,0.59-0.87c0.15-0.2,0.31-0.38,0.47-0.57c0.5-0.59,1.05-1.13,1.66-1.61c0.08-0.07,0.16-0.14,0.25-0.2
			c0.39-0.29,0.78-0.57,1.21-0.82c1.84-1.09,3.94-1.75,6.22-1.75c0.09,0,0.17,0,0.26,0c6.82,0.14,12.23,5.84,12.09,12.75
			c-0.13,6.81-5.63,12.24-12.34,12.24c-0.09,0-0.17,0-0.26,0c-5.46-0.11-9.97-3.83-11.5-8.84
			C430.62,36.15,430.46,35.54,430.37,34.92z M429.23,60.03c19.7,5.62,30.71,13.05,30.37,30.26v0.29
			c-0.25,12.8-6.74,21.78-17.06,26.38l0.01,0.02c-7.9,4.48-26.92,5.03-36.84,4.99c7.44-2.62,12.9-9.72,13.06-18.07
			c0.01-0.4-0.02-0.79-0.04-1.18c3.93-0.34,7.97-0.99,12.03-2.21v-0.01c4.64-1.31,7.37-4.17,7.45-8.24v-0.29
			c0.11-5.51-3.19-8.39-19.42-12.96c-19.56-5.48-32.15-11.24-31.76-30.85v-0.29c0.23-11.48,6.26-20.33,15.8-25.11l-0.01-0.03
			c7.22-4.4,19.96-4.94,27.57-4.81c-4.27,3.52-7.06,8.83-7.18,14.76c-0.03,1.47,0.11,2.89,0.39,4.27c-3.18,0.3-6.26,0.95-10.01,2.35
			c-3.33,1.47-5.12,4.03-5.18,7.04v0.28C408.3,53.1,412.44,55.31,429.23,60.03z"/>
	</g>
</g>
<line class="st0" x1="23.81" y1="215.48" x2="562.31" y2="215.48"/>
<g>
	<path class="st1" d="M620.03,215h-5.43v30.88h-14.83v-73.94h14.83v30.21h4.16l20.26-30.21h18.33l-25.59,34.38l27.57,39.56h-18.89
		L620.03,215z"/>
	<path class="st1" d="M732.96,171.93v48.39c0,8.33-2.76,14.85-8.28,19.55c-5.52,4.71-12.68,7.06-21.48,7.06
		c-8.77,0-15.89-2.35-21.35-7.06c-5.47-4.71-8.2-11.22-8.2-19.55v-48.39h14.88v48.39c0,4.94,1.32,8.72,3.96,11.32
		c2.64,2.61,6.21,3.91,10.71,3.91c4.57,0,8.19-1.3,10.87-3.91c2.67-2.61,4.01-6.38,4.01-11.32v-48.39L732.96,171.93L732.96,171.93z"
		/>
	<path class="st1" d="M754.13,245.87v-73.94h24.22c8.7,0,15.49,1.7,20.36,5.1s7.31,8.46,7.31,15.16c0,3.39-0.88,6.42-2.64,9.09
		s-4.33,4.69-7.72,6.04c4.6,0.85,8.07,2.84,10.41,5.99s3.5,6.82,3.5,11.02c0,7.08-2.34,12.43-7.01,16.07
		c-4.67,3.64-11.29,5.46-19.86,5.46L754.13,245.87L754.13,245.87z M768.96,202.91h9.9c3.96,0,7.01-0.81,9.14-2.44s3.2-3.99,3.2-7.11
		c0-3.42-1.08-5.94-3.22-7.57c-2.15-1.63-5.36-2.44-9.62-2.44h-9.39v19.56H768.96z M768.96,213.17v21.33h13.76
		c3.93,0,6.92-0.85,8.99-2.56c2.06-1.71,3.1-4.24,3.1-7.59c0-3.59-1.02-6.35-3.05-8.28s-5.1-2.89-9.19-2.89h-13.61V213.17z"/>
	<path class="st1" d="M870.97,213.37h-27.42v21.13h32.6v11.38h-47.43v-73.94h47.33v11.43h-32.5v18.59h27.42V213.37z"/>
	<path class="st1" d="M909.71,216.32v29.55h-14.83v-73.94h25.59c8.43,0,15.02,1.92,19.78,5.76s7.13,9.2,7.13,16.07
		c0,3.79-1.01,7.07-3.02,9.83s-4.95,4.99-8.81,6.68c4.37,1.29,7.51,3.44,9.42,6.45s2.87,6.74,2.87,11.17v5.43
		c0,2.07,0.28,4.22,0.84,6.47s1.51,3.92,2.87,5v1.07h-15.29c-1.35-1.08-2.23-2.88-2.62-5.38s-0.58-4.93-0.58-7.26V228
		c0-3.69-1.01-6.56-3.02-8.61s-4.87-3.07-8.56-3.07L909.71,216.32L909.71,216.32z M909.71,204.89h10.51c4.16,0,7.26-0.88,9.29-2.64
		c2.03-1.76,3.05-4.37,3.05-7.82c0-3.38-1.02-6.08-3.07-8.07c-2.05-2-5.05-3-9.01-3h-10.77L909.71,204.89L909.71,204.89z"/>
</g>
</svg>
