<svg id="Layer_1" data-name="Layer 1" xmlns="http://www.w3.org/2000/svg" viewBox="0 0 555 191.3"><defs><style>.cls-1{fill:#00d0cd;}.cls-2,.cls-7{fill:#3a1959;}.cls-3{fill:#fcee21;}.cls-4{fill:#fef790;}.cls-5{fill:#9d8cac;}.cls-6{fill:#80e8e6;}.cls-7{font-size:49.23px;font-family:GoboldUplow, Gobold Uplow;}</style></defs><title>School Logo_01</title><polyline class="cls-1" points="75.09 90.2 146.76 131.58 75.09 172.94 75.09 90.2"/><path class="cls-2" d="M313.4,572.26a2.93,2.93,0,0,1-2.93-2.93V486.6a2.93,2.93,0,0,1,4.39-2.53l71.68,41.38a2.92,2.92,0,0,1,0,5.07l-71.67,41.36a2.92,2.92,0,0,1-1.46.39m2.93-80.59v72.6L379.22,528l-62.9-36.31" transform="translate(-238.31 -396.4)"/><polyline class="cls-3" points="2.93 47.29 74.6 88.67 2.93 130.03 2.93 47.29"/><path class="cls-2" d="M241.24,529.35a2.93,2.93,0,0,1-2.93-2.93V443.69a2.93,2.93,0,0,1,4.39-2.53l71.68,41.38a2.92,2.92,0,0,1,0,5.07L242.7,529a2.92,2.92,0,0,1-1.46.39m2.93-80.59v72.6l62.9-36.29-62.9-36.31" transform="translate(-238.31 -396.4)"/><polyline class="cls-1" points="75.09 7.31 146.76 48.69 75.09 90.05 75.09 7.31"/><path class="cls-2" d="M313.4,489.37a2.92,2.92,0,0,1-2.93-2.93V403.71a2.93,2.93,0,0,1,4.39-2.53l71.68,41.38a2.92,2.92,0,0,1,0,5.07L314.86,489a2.93,2.93,0,0,1-1.46.39m2.93-80.59v72.6l62.9-36.29-62.9-36.31" transform="translate(-238.31 -396.4)"/><polyline class="cls-4" points="5.85 52.36 5.85 62.35 59.35 93.9 68.56 88.68 32.64 67.83 5.85 52.36"/><polyline class="cls-5" points="5.85 52.27 5.79 62.31 5.85 62.35 5.85 52.36 32.64 67.83 5.85 52.27"/><polyline class="cls-6" points="78.01 12.38 78.01 22.36 131.52 53.92 140.72 48.69 105.02 27.97 78.01 12.38"/><polyline class="cls-5" points="78.01 12.29 77.95 22.33 78.01 22.36 78.01 12.38 105.02 27.97 78.01 12.29"/><polyline class="cls-6" points="78.01 95.27 78.01 105.25 131.52 136.81 140.72 131.58 104.8 110.73 78.01 95.27"/><polyline class="cls-5" points="78.01 95.18 77.95 105.22 78.01 105.25 78.01 95.27 104.8 110.73 78.01 95.18"/><path class="cls-2" d="M429,418.74h14.55q12.58,0,12.58,14.51v39.93q0,14.44-13.18,14.47H429Zm9.44,9.8v49.31h4.14q4.1,0,4.11-4.67V433.24q0-4.71-4.11-4.71Z" transform="translate(-238.31 -396.4)"/><path class="cls-2" d="M478.31,458.11v16.16q0,4.67,4.11,4.67t4.14-4.67V465H496v9.27q0,14.47-13.58,14.51t-13.55-14.51V432.12q0-14.47,13.55-14.47T496,432.12v26Zm0-9.83h8.24V432.12q0-4.64-4.1-4.67h-.07q-4.08,0-4.07,4.67Z" transform="translate(-238.31 -396.4)"/><path class="cls-2" d="M508.74,432.12q0-14.47,13.55-14.47t13.58,14.47v9.27h-9.44v-9.27q0-4.64-4.11-4.67h-.07q-4.07,0-4.07,4.67v6.25q0,4.6,8.84,11.27t8.84,15.91v8.71q0,14.51-13.55,14.51t-13.58-14.51V465h9.44v9.27q0,4.67,4.14,4.67t4.11-4.67V466.4q0-5-8.84-11.66t-8.84-16.16Z" transform="translate(-238.31 -396.4)"/><path class="cls-2" d="M548.31,400.23h10.21V411H548.31Zm.37,18.51h9.44v68.91h-9.44Z" transform="translate(-238.31 -396.4)"/><path class="cls-2" d="M598,495.69q0,14.51-13.55,14.51t-13.58-14.51V493.2h9.44v2.49q0,4.67,4.14,4.67t4.11-4.67v-8.36a6.62,6.62,0,0,1-4.14,1.44q-13.55,0-13.55-14.51V432.12q0-14.47,13.55-14.47T598,432.12Zm-9.44-21.35V432.12q0-4.64-4.11-4.67h-.07q-4.08,0-4.07,4.67v42.15q0,4.67,4.11,4.67T588.55,474.34Z" transform="translate(-238.31 -396.4)"/><path class="cls-2" d="M620.18,487.65h-9.44V432.12q0-14.47,13.55-14.47t13.58,14.47v55.53h-9.45V432.12q0-4.64-4.1-4.67h-.07q-4.08,0-4.08,4.67Z" transform="translate(-238.31 -396.4)"/><path class="cls-2" d="M651.28,418.74h14.55q12.59,0,12.58,14.51V443.6q0,6.78-5.17,9.59,5.18,2.81,5.17,9.59v10.4q0,14.44-13.18,14.47h-14Zm9.44,9.8v19.74h3a8.65,8.65,0,0,0,2.7-.28q2.57-1.09,2.57-4.39V433.24q0-4.71-4.11-4.71Zm0,29.57v19.74h4.14q4.1,0,4.11-4.67v-10.4q0-3.3-2.57-4.36a7.78,7.78,0,0,0-2.7-.32Z" transform="translate(-238.31 -396.4)"/><path class="cls-2" d="M717.95,474.26q0,14.47-13.59,14.51t-13.55-14.51V432.12q0-14.47,13.55-14.47t13.59,14.47Zm-9.44-42.15q0-4.64-4.11-4.67h-.06q-4.08,0-4.07,4.67v42.15q0,4.67,4.1,4.67t4.14-4.67Z" transform="translate(-238.31 -396.4)"/><path class="cls-2" d="M748.44,432.12q0-4.67-4.07-4.67h-.07q-4.1,0-4.1,4.67v9.27h-9.44v-9.27q0-14.47,13.58-14.47t13.55,14.47v42.15q0,14.51-13.55,14.51t-13.58-14.51V462.71q0-14.47,10.38-14.51a11.44,11.44,0,0,1,7.31,2.21Zm-8.24,42.15q0,4.67,4.14,4.67t4.11-4.67V462.67q0-4.64-4.11-4.64t-4.14,4.67Z" transform="translate(-238.31 -396.4)"/><polygon class="cls-2" points="545.53 22.34 552.84 22.34 552.84 32.14 545.53 32.14 545.53 91.25 536.09 91.25 536.09 32.14 529.32 32.14 529.32 22.34 536.09 22.34 536.09 0 545.53 0 545.53 22.34"/><polygon class="cls-2" points="265.61 129.88 255.25 174.86 250.45 174.86 260.81 129.88 265.61 129.88"/><line class="cls-2" x1="192.06" y1="109.52" x2="321.89" y2="109.52"/><path class="cls-1" d="M560.2,509.42H430.37a3.51,3.51,0,0,1,0-7H560.2a3.51,3.51,0,0,1,0,7Z" transform="translate(-238.31 -396.4)"/><line class="cls-2" x1="369.26" y1="109.52" x2="548.21" y2="109.52"/><path class="cls-1" d="M786.52,509.42h-179a3.51,3.51,0,1,1,0-7h179a3.51,3.51,0,1,1,0,7Z" transform="translate(-238.31 -396.4)"/><text class="cls-7" transform="translate(366.59 174.86)">S</text><text class="cls-7" transform="translate(399.93 174.86)">C</text><text class="cls-7" transform="translate(433.26 175.86)">H</text><text class="cls-7" transform="translate(466.6 174.86)">O</text><text class="cls-7" transform="translate(499.93 174.86)">O</text><text class="cls-7" transform="translate(533.27 175.86)">L</text><text class="cls-7" transform="translate(189.39 174.86)">U</text><text class="cls-7" transform="translate(220.97 175.77)">I</text><text class="cls-7" transform="translate(275.89 174.86)">U</text><text class="cls-7" transform="translate(309.22 175.77)">X</text></svg>