<?xml version="1.0" encoding="UTF-8"?>
<svg width="549px" height="308px" viewBox="0 0 549 308" version="1.1" xmlns="http://www.w3.org/2000/svg" xmlns:xlink="http://www.w3.org/1999/xlink">
    <!-- Generator: Sketch 54.1 (76490) - https://sketchapp.com -->
    <title>logo//uptick_logo_white</title>
    <desc>Created with Sketch.</desc>
    <defs>
        <linearGradient x1="0.0527639854%" y1="50.0324438%" x2="99.9804072%" y2="50.0324438%" id="linearGradient-1">
            <stop stop-color="#23B37B" offset="0%"></stop>
            <stop stop-color="#27CC8C" offset="21%"></stop>
            <stop stop-color="#2AD995" offset="42.9555532%"></stop>
            <stop stop-color="#28D190" offset="66.8786951%"></stop>
            <stop stop-color="#2FF3A7" offset="99.9947213%"></stop>
        </linearGradient>
    </defs>
    <g id="logo//uptick_logo_white" stroke="none" stroke-width="1" fill="none" fill-rule="evenodd">
        <g id="upticklogo_reverse" fill-rule="nonzero">
            <path d="M312.5,107.6 L289.9,107.6 L289.9,86.6 C289.9,84 287.8,81.9 285.2,81.9 L285.2,81.9 L276.8,81.9 C270.3,81.9 265,87.1 265,93.7 C265,93.7 265,93.7 265,93.7 L265,181.6 C265,198.9 279,212.9 296.3,213 L304.6,213 C311.4,213 317,207.4 317,200.6 L317,192.7 C317,190.2 315,188.3 312.5,188.2 L296.3,188.2 C294.6,188.2 293,187.5 291.8,186.3 C290.5,185.1 289.8,183.4 289.9,181.7 L289.9,132.5 L312.7,132.5 C315.1,132.5 317,130.6 317.1,128.2 C317.1,128.2 317.1,128.2 317.1,128.2 L317.1,112.2 C317,109.6 315,107.7 312.5,107.6 L312.5,107.6 Z" id="Path" fill="#FFFFFF"></path>
            <circle id="Oval" fill="#FFFFFF" cx="342" cy="82" r="14.9"></circle>
            <path d="M350.9,107.6 L342.8,107.6 C336,107.6 330.4,113.1 330.4,120 L330.4,208.6 C330.4,211 332.4,213 334.8,213 C334.8,213 334.8,213 334.8,213 L342.7,213 C349.6,213 355.2,207.5 355.2,200.6 C355.2,200.6 355.2,200.6 355.2,200.6 L355.2,112.1 C355.3,109.6 353.4,107.7 350.9,107.6 L350.9,107.6 Z M548.8,205.7 L514.7,153.4 L544.6,115.2 C546.2,113.1 545.8,110.2 543.7,108.6 C542.8,107.9 541.7,107.6 540.5,107.7 L520.3,107.7 C518.9,107.8 517.7,108.5 516.9,109.5 L490.7,144 L488.3,147.1 L486.8,149 L486.8,74.7 C486.8,72 484.7,69.9 482,69.9 L474,69.9 C467.5,69.9 462.2,75.2 462.2,81.7 C462.2,81.7 462.2,81.7 462.2,81.7 L462.2,209 C462.2,211.1 463.9,212.9 466.1,212.9 L466.1,212.9 L482,212.9 C484.7,212.9 486.8,210.7 486.8,208.1 L486.8,182.1 L496.1,169.7 L522.2,209.7 C523,211 524.4,211.8 525.9,211.9 L544.9,212.2 C548.9,212.3 550.9,209 548.8,205.7 Z M444.3,107.6 L400.1,107.6 C382.8,107.7 368.8,121.6 368.8,138.9 L368.8,181.6 C368.8,198.9 382.8,212.9 400.1,212.9 L444.3,212.9 C446.7,212.9 448.6,211 448.7,208.6 C448.7,208.6 448.7,208.6 448.7,208.6 L448.7,200.5 C448.7,193.7 443.2,188.1 436.4,188.1 L400.1,188.1 C398.4,188.1 396.7,187.4 395.5,186.2 C394.3,185 393.7,183.3 393.7,181.6 L393.7,138.9 C393.7,137.2 394.3,135.5 395.5,134.3 C396.7,133.1 398.4,132.4 400.1,132.4 L436.3,132.4 C443.1,132.4 448.7,126.9 448.7,120.1 C448.7,120.1 448.7,120.1 448.7,120.1 L448.7,112 C448.7,109.7 446.8,107.7 444.3,107.6 L444.3,107.6 Z M138.4,107.6 L130.5,107.6 C128,107.6 126.1,109.6 126,112.1 L126,188.1 L96.1,188.1 C92.5,188.1 89.6,185.2 89.6,181.6 L89.6,120 C89.6,113.2 84.1,107.6 77.3,107.6 L69.3,107.6 C66.8,107.6 64.9,109.6 64.8,112.1 L64.8,181.6 C64.8,189.9 68.1,197.9 74,203.7 C79.8,209.6 87.8,213 96.1,212.9 L146.4,212.9 C148.8,212.9 150.8,211 150.9,208.5 L150.9,120 C150.9,113.1 145.3,107.6 138.4,107.6 L138.4,107.6 Z M219.3,107.6 L176.7,107.6 C169.9,107.6 164.3,113.1 164.3,120 L164.3,246.3 C164.3,248.8 166.3,250.8 168.7,250.8 C168.7,250.8 168.7,250.8 168.7,250.8 L176.7,250.8 C183.6,250.9 189.2,245.3 189.3,238.5 L189.3,213 L219.2,213 C236.6,212.9 250.6,198.8 250.5,181.5 L250.5,138.9 C250.5,121.6 236.5,107.6 219.3,107.6 L219.3,107.6 Z M225.6,173.3 L225.6,181.6 C225.6,183.3 225,185 223.8,186.2 C222.6,187.4 220.9,188.1 219.2,188.1 L189.3,188.1 L189.3,132.4 L218.8,132.4 C222.5,132.4 225.6,135.4 225.6,139.2 L225.6,173.3 Z" id="Shape" fill="#FFFFFF"></path>
            <path d="M16,252.5 L16,252.3 C16,252.4 16,252.4 16,252.5 Z M300.3,57.9 L300.2,57.8 L300.3,57.9 C300.3,57.8 300.4,57.8 300.4,57.9 C300.4,58 300.4,57.9 300.3,57.9 Z" id="Shape" fill="#55C2B9"></path>
            <path d="M308.4,55.6 C308.3,54.2 307.9,52.9 307.1,51.7 C306.3,50.6 305.2,49.7 303.9,49.2 C303.4,49 302.9,48.9 302.4,48.8 C302,48.7 301.6,48.7 301.2,48.6 C299.9,48.5 298.6,48.6 297.3,48.8 C295.2,49.2 293.2,49.7 291.2,50.4 C287.5,51.7 283.9,53.2 280.4,54.9 C273.5,58.2 266.9,61.8 260.3,65.5 C247.3,73 234.5,81 221.8,89 C218.1,91.3 214.5,93.7 210.8,96.1 L214.6,96.1 C217.4,94.5 220.3,92.9 223.1,91.3 C236.2,84 249.4,77.1 262.9,70.7 C269.7,67.5 276.5,64.6 283.4,62 C286.8,60.7 290.2,59.6 293.7,58.7 C294.9,58.4 296.2,58.1 297.5,57.9 C296.7,59 295.9,60.1 295,61.1 C292.6,63.8 290.2,66.3 287.6,68.7 C283.1,73 278.3,77.1 273.4,81.1 L239.5,90.8 C237.5,91.4 236.4,93.4 236.9,95.4 C237.3,96.9 238.7,98 240.3,98.1 C243.3,98.2 246.2,99 248.8,100.3 C244.4,103.6 240,106.9 235.5,110.2 C211.5,127.8 187.1,144.9 162.5,161.7 C137.9,178.5 113.1,195.1 88,211.1 C75.4,219.1 62.8,226.9 50,234.2 C43.6,237.8 37.1,241.4 30.5,244.5 C27.3,246.1 24,247.4 20.7,248.7 C19.4,249.1 18.1,249.5 17,249.8 C17.6,248.7 18.3,247.7 19,246.7 C21.1,243.8 23.4,241 25.8,238.3 C30.7,232.8 35.9,227.5 41.3,222.4 C48.6,215.4 56.2,208.6 63.9,202 C63.2,201.1 62.6,200.1 62,199 C53.7,205.2 45.5,211.5 37.4,218.1 C31.6,222.9 25.8,227.7 20.2,233 C17.3,235.7 14.6,238.5 12.1,241.4 C10.7,243 9.4,244.7 8.3,246.5 C7.6,247.6 7.1,248.8 6.7,250 C6.6,250.4 6.5,250.8 6.4,251.2 C6.3,251.7 6.3,252.2 6.3,252.7 C6.3,255.6 8,258.2 10.7,259.2 C11.2,259.4 11.7,259.6 12.2,259.7 C12.6,259.8 13,259.9 13.5,259.9 C14.8,260.1 16.2,260.1 17.5,259.9 C19.6,259.7 21.8,259.3 23.8,258.7 C27.6,257.7 31.4,256.5 35.1,255.1 C42.3,252.4 49.3,249.3 56.2,246.1 C70,239.7 83.4,232.6 96.6,225.3 C123,210.6 148.5,194.5 173.4,177.5 C198.3,160.5 222.5,142.5 245.8,123.2 C250.3,119.5 254.7,115.8 259.1,112 C260,114.5 260.3,117.1 260.2,119.8 L260.1,121.3 C260,123.3 261.6,125.1 263.6,125.1 C265.1,125.2 266.4,124.4 267.1,123 L283,90 C287.4,85.7 291.6,81.3 295.8,76.7 C298.4,73.8 300.9,70.7 303.3,67.5 C304.6,65.8 305.7,63.9 306.7,62 C307.3,60.8 307.8,59.6 308.1,58.3 C308.2,57.9 308.3,57.5 308.3,57 C308.4,56.6 308.4,56.1 308.4,55.6 L308.4,55.6 Z" id="Path" fill="url(#linearGradient-1)"></path>
            <path d="M203.8,223.9 C203.5,222.3 203.2,220.6 202.8,219 L200.1,219 C200.4,220.8 200.7,222.6 201,224.3 C203.1,237.4 204.6,250.6 205.2,263.9 C205.5,270.5 205.4,277.1 204.8,283.7 C204.5,287 203.9,290.2 202.9,293.3 C202.4,294.8 201.8,296.2 200.9,297.6 C200.1,298.8 199,299.8 197.6,300.3 C196.2,300.6 194.7,300.4 193.4,299.7 C192,299 190.7,298.1 189.5,297.1 C187.1,294.9 184.9,292.5 183,289.8 C179.1,284.5 175.6,278.8 172.5,273 C166.3,261.3 160.7,249.2 155.8,236.9 C153.4,231 151.1,225.1 149,219.1 L137.2,219.1 C137.6,220.1 138,221.1 138.4,222.1 C140.9,228.4 143.5,234.6 146.2,240.8 C148.9,247 151.9,253.1 155,259.2 C158.1,265.3 161.4,271.3 164.9,277.2 C168.5,283.2 172.5,289 177,294.4 C179.4,297.3 182.1,300 185,302.4 C186.7,303.8 188.7,305 190.7,305.9 C192,306.4 193.3,306.8 194.7,307 C196.3,307.2 198,307.1 199.6,306.6 C201.2,306.1 202.6,305.3 203.8,304.2 C204.8,303.3 205.7,302.3 206.4,301.1 C207.5,299.2 208.4,297.2 208.9,295.1 C209.8,291.5 210.4,287.9 210.5,284.2 C210.8,277.3 210.6,270.4 209.9,263.6 C208.7,250.2 206.3,237 203.8,223.9 Z M102.8,85.2 C104.6,98.6 106.8,112 109.5,125.2 C110.9,131.8 112.3,138.4 113.9,145 C115.5,151.6 117.2,158.1 119,164.6 C119.1,164.9 119.2,165.3 119.3,165.6 L119.3,116.3 C117,105.5 114.8,94.6 113.1,83.6 C110.9,70.5 109.4,57.3 108.7,44 C108.3,37.4 108.4,30.8 109,24.2 C109.3,20.9 109.9,17.7 110.8,14.6 C111.3,13.1 111.9,11.6 112.8,10.3 C114.2,7.6 117.5,6.6 120.2,8.1 L120.4,8.2 C121.8,8.9 123.1,9.8 124.3,10.8 C126.7,13 128.9,15.4 130.9,18 C134.8,23.3 138.4,28.9 141.5,34.7 C147.8,46.4 153.4,58.5 158.3,70.8 C161.7,79.1 164.9,87.5 167.9,95.9 L169.9,95.9 C167.1,87.1 164.1,78.4 160.8,69.7 C156.1,57.2 151.3,44.7 145.3,32.5 C142.3,26.3 138.9,20.3 135.2,14.6 C133.2,11.5 130.8,8.7 128.2,6.1 C126.7,4.6 124.9,3.3 123,2.3 C121.8,1.7 120.5,1.3 119.1,1 C115.9,0.4 112.5,1.2 110,3.3 C108.9,4.2 107.9,5.2 107.1,6.3 C105.8,8.1 104.8,10.1 104,12.2 C102.7,15.8 101.8,19.5 101.3,23.2 C100.3,30.2 99.8,37.2 99.9,44.2 C99.9,51.1 100.2,57.9 100.7,64.7 C101.2,71.5 101.8,78.5 102.8,85.2 Z M17.2,152.9 C23.3,156.3 29.7,159.3 36.2,161.9 C42.6,164.5 49.1,166.8 55.5,168.9 L55.5,158.9 C50,157.3 44.5,155.6 39,153.7 C32.7,151.6 26.6,149 20.6,146 C17.6,144.6 14.8,142.9 12.2,141 C10.9,140.1 9.8,138.9 8.8,137.7 C6.9,135.8 6.9,132.8 8.8,131 C9.1,130.7 9.4,130.4 9.8,130.2 C11.1,129.2 12.4,128.4 13.9,127.8 C17,126.6 20.1,125.6 23.4,125 C29.9,123.7 36.6,122.8 43.2,122.4 C46.8,122.1 50.4,121.9 54,121.8 L54.4,117.8 C50.6,117.8 46.7,117.8 42.9,117.9 C36,118.1 29.2,118.6 22.3,119.6 C18.7,120.1 15.1,121 11.7,122.2 C9.7,122.9 7.8,123.9 6,125.2 C4.9,126 3.9,126.9 3.1,128 C2.1,129.4 1.4,131 1.1,132.7 C0.8,134.4 1,136.2 1.6,137.9 C2,139.2 2.7,140.5 3.5,141.6 C4.8,143.4 6.3,145 8,146.4 C10.9,149 14,151.1 17.2,152.9 L17.2,152.9 Z" id="Shape" fill="#23B37B"></path>
        </g>
    </g>
</svg>