<svg width="29" height="29" viewBox="0 0 29 29" fill="none" xmlns="http://www.w3.org/2000/svg">
<path d="M14.5 0.690475C6.87301 0.690475 0.690491 6.873 0.690491 14.5C0.690491 22.127 6.87301 28.3095 14.5 28.3095C22.127 28.3095 28.3095 22.127 28.3095 14.5C28.3095 6.873 22.127 0.690475 14.5 0.690475ZM14.5 2.69148C17.5084 2.69148 20.2544 3.81695 22.3397 5.66881C20.8075 7.68983 18.4799 9.03557 16.1475 9.94631C14.8271 7.54162 13.3474 5.22796 11.7181 3.02083C12.6293 2.80119 13.5634 2.69063 14.5007 2.69148H14.5ZM9.47611 3.81005C11.0159 6.11348 12.5073 8.24912 13.8696 10.6665C10.4241 11.5593 6.53054 12.0951 2.93385 12.104C3.69199 8.42519 6.16321 5.37052 9.47611 3.81074V3.81005ZM23.6495 7.03457C25.3559 9.11978 26.2945 11.7276 26.3085 14.422C23.577 13.8834 20.8607 13.7425 18.0946 14.0215C17.7839 13.2461 17.4069 12.5094 17.0458 11.7153C19.43 10.7535 21.9793 9.10738 23.6495 7.03388V7.03457ZM14.8287 12.4935C15.1242 13.1218 15.4667 13.7888 15.7884 14.4703C11.9425 16.1661 7.85142 18.4323 5.7282 22.4053C3.68992 20.1497 2.60366 17.1928 2.69701 14.1541C6.8157 14.1347 10.8584 13.6196 14.8287 12.4935V12.4935ZM21.0692 15.7132C22.7877 15.7135 24.499 15.934 26.1615 16.3691C25.9051 17.9684 25.3225 19.4979 24.4498 20.8624C23.5771 22.2269 22.4329 23.3972 21.0885 24.3006C20.4547 21.4179 19.8505 18.6594 18.7823 15.8782C19.5394 15.7679 20.3035 15.7125 21.0685 15.7125L21.0692 15.7132ZM26.2229 15.9272C26.2146 15.9949 26.207 16.0612 26.1974 16.1275C26.207 16.0605 26.2153 15.9942 26.2229 15.9272ZM16.5977 16.4175C17.6859 19.2298 18.54 22.3438 19.1131 25.3743C17.6542 25.9933 16.0854 26.3113 14.5007 26.3092C11.8754 26.313 9.32439 25.4379 7.25416 23.8235C9.39256 20.3545 12.7048 17.7294 16.597 16.4181L16.5977 16.4175Z" fill="#FFFCFC"/>
</svg>
