<svg xmlns="http://www.w3.org/2000/svg" width="34.121" height="58.001" viewBox="0 0 34.121 58.001"><defs><style>.a{opacity:0.68;}.b{fill:#fafafa;}</style></defs><g class="a"><path class="b" d="M17.061,0A17.08,17.08,0,0,0,0,17.061V40.94a17.061,17.061,0,0,0,34.121,0V17.061A17.08,17.08,0,0,0,17.061,0ZM30.641,40.94a13.581,13.581,0,1,1-27.161,0V17.061a13.581,13.581,0,1,1,27.161,0Zm0,0"/><path class="b" d="M136.986,101.852a1.74,1.74,0,0,0-1.74,1.74V111.6a1.74,1.74,0,1,0,3.48,0v-8.009A1.74,1.74,0,0,0,136.986,101.852Zm0,0" transform="translate(-119.925 -90.314)"/></g></svg>